<svg width="13900" height="1126" viewBox="0 0 13900 1126" fill="none" xmlns="http://www.w3.org/2000/svg">
<path fill-rule="evenodd" clip-rule="evenodd" d="M3215.5 1125.01H2588.5C2515 1125.01 2482 1092.01 2482 1018.51V180.5C2482 107 2515 74 2588.5 74H3215.5C3289 74 3322 107 3322 180.5C3322 254 3350.5 282.5 3424 282.5C3497.5 282.5 3532 317 3532 389L3532 810.011C3532 882.012 3497.5 916.512 3424 916.512C3350.5 916.512 3322 945.012 3322 1018.51C3322 1092.01 3289 1125.01 3215.5 1125.01ZM2695 401.51V810.011C2695 883.511 2723.5 912.012 2797 912.012H3215.5C3290.5 912.012 3317.5 883.511 3317.5 810.011V389C3317.5 315.5 3290.5 287 3215.5 287H2797C2723.5 287 2695 315.5 2695 389V401.51Z" fill="white"/>
<path d="M1125 1018.5C1125 1092 1090.5 1125 1017 1125C945 1125 910.5 1092 910.5 1018.5V600C910.5 526.5 883.5 498 808.5 498C733.5 498 706.5 526.5 706.5 600C706.5 673.5 672 708 600 708C526.5 708 492 673.5 492 600C492 526.5 465 498 390 498C316.5 498 288 526.5 288 600V1018.5C288 1092 255 1125 181.5 1125C108 1125 75 1092 75 1018.5V183C75 109.5 108 74.9999 181.5 74.9999C255 74.9999 288 109.5 288 183C288 256.5 316.5 285 390 285C463.5 285 498 318 498 391.5C498 466.5 525 493.5 600 493.5C673.5 493.5 702 466.5 702 391.5C702 318 735 285 808.5 285C883.5 285 910.5 256.5 910.5 183C910.5 109.5 945 74.9999 1017 74.9999C1090.5 74.9999 1125 109.5 1125 183V1018.5ZM1802.64 493.5C1874.64 493.5 1909.14 526.5 1909.14 600C1909.14 673.5 1874.64 706.5 1802.64 706.5C1729.14 706.5 1694.64 673.5 1694.64 600C1694.64 526.5 1729.14 493.5 1802.64 493.5ZM2219.64 283.5C2293.14 283.5 2327.64 318 2327.64 391.5V808.5C2327.64 882 2293.14 916.5 2219.64 916.5C2146.14 916.5 2117.64 943.5 2117.64 1018.5C2117.64 1090.5 2084.64 1125 2011.14 1125H1592.64C1520.64 1125 1486.14 1090.5 1486.14 1018.5C1486.14 943.5 1457.64 916.5 1384.14 916.5C1310.64 916.5 1277.64 882 1277.64 808.5V391.5C1277.64 318 1310.64 283.5 1384.14 283.5C1457.64 283.5 1486.14 256.5 1486.14 181.5C1486.14 108 1520.64 74.9999 1592.64 74.9999H2011.14C2084.64 74.9999 2117.64 108 2117.64 181.5C2117.64 256.5 2146.14 283.5 2219.64 283.5ZM2113.14 808.5V391.5C2113.14 316.5 2086.14 288 2011.14 288H1592.64C1519.14 288 1490.64 316.5 1490.64 391.5V808.5C1490.64 883.5 1519.14 910.5 1592.64 910.5H2011.14C2086.14 910.5 2113.14 883.5 2113.14 808.5ZM4717.69 1018.5C4717.69 1092 4684.69 1125 4611.19 1125C4537.69 1125 4504.69 1092 4504.69 1018.5V391.5C4504.69 318 4537.69 285 4611.19 285C4684.69 285 4713.19 256.5 4713.19 183C4713.19 109.5 4747.69 74.9999 4819.69 74.9999H5238.19C5311.69 74.9999 5344.69 109.5 5344.69 183C5344.69 256.5 5373.19 285 5446.69 285C5520.19 285 5554.69 318 5554.69 391.5V600C5554.69 673.5 5520.19 708 5446.69 708H4819.69C4746.19 708 4717.69 735 4717.69 810V1018.5ZM5238.19 289.5H4819.69C4746.19 289.5 4717.69 316.5 4717.69 391.5C4717.69 466.5 4746.19 493.5 4819.69 493.5H5238.19C5313.19 493.5 5340.19 466.5 5340.19 391.5C5340.19 316.5 5313.19 289.5 5238.19 289.5ZM6647.86 1125H6439.36C6365.86 1125 6332.86 1092 6332.86 1018.5C6332.86 945 6304.36 916.5 6230.86 916.5C6157.36 916.5 6122.86 882 6122.86 810C6122.86 735 6095.86 708 6020.86 708C5947.36 708 5918.86 735 5918.86 810V1018.5C5918.86 1092 5885.86 1125 5812.36 1125C5738.86 1125 5705.86 1092 5705.86 1018.5V391.5C5705.86 318 5738.86 285 5812.36 285C5885.86 285 5914.36 256.5 5914.36 183C5914.36 109.5 5948.86 74.9999 6020.86 74.9999H6439.36C6512.86 74.9999 6545.86 109.5 6545.86 183C6545.86 256.5 6574.36 285 6647.86 285C6721.36 285 6755.86 318 6755.86 391.5V600C6755.86 673.5 6721.36 708 6647.86 708H6439.36C6364.36 708 6337.36 735 6337.36 810C6337.36 883.5 6364.36 912 6439.36 912H6647.86C6721.36 912 6755.86 945 6755.86 1018.5C6755.86 1092 6721.36 1125 6647.86 1125ZM6439.36 289.5H6020.86C5947.36 289.5 5918.86 316.5 5918.86 391.5C5918.86 466.5 5947.36 493.5 6020.86 493.5H6439.36C6514.36 493.5 6541.36 466.5 6541.36 391.5C6541.36 316.5 6514.36 289.5 6439.36 289.5ZM7640.53 1125H7222.03C7150.03 1125 7115.53 1092 7115.53 1018.5C7115.53 945 7087.03 916.5 7013.53 916.5C6940.03 916.5 6907.03 882 6907.03 810V391.5C6907.03 318 6940.03 285 7013.53 285C7087.03 285 7115.53 256.5 7115.53 183C7115.53 109.5 7150.03 74.9999 7222.03 74.9999H7640.53C7714.03 74.9999 7747.03 109.5 7747.03 183C7747.03 256.5 7775.53 285 7849.03 285C7922.53 285 7957.03 318 7957.03 391.5V810C7957.03 882 7922.53 916.5 7849.03 916.5C7775.53 916.5 7747.03 945 7747.03 1018.5C7747.03 1092 7714.03 1125 7640.53 1125ZM7640.53 289.5H7222.03C7148.53 289.5 7120.03 316.5 7120.03 391.5V810C7120.03 883.5 7148.53 912 7222.03 912H7640.53C7715.53 912 7742.53 883.5 7742.53 810V391.5C7742.53 316.5 7715.53 289.5 7640.53 289.5ZM8739.7 1018.5C8739.7 1092 8705.2 1125 8633.2 1125C8559.7 1125 8525.2 1092 8525.2 1018.5V600C8525.2 526.5 8498.2 498 8423.2 498C8351.2 498 8316.7 465 8316.7 391.5C8316.7 316.5 8288.2 289.5 8214.7 289.5C8141.2 289.5 8108.2 255 8108.2 183C8108.2 109.5 8141.2 74.9999 8214.7 74.9999H9050.2C9123.7 74.9999 9158.2 109.5 9158.2 183C9158.2 255 9123.7 289.5 9050.2 289.5H8633.2C8558.2 289.5 8531.2 316.5 8531.2 391.5C8531.2 466.5 8558.2 493.5 8633.2 493.5C8705.2 493.5 8739.7 528 8739.7 600V1018.5ZM9968.17 1125H9549.67C9477.67 1125 9443.17 1092 9443.17 1018.5C9443.17 945 9414.67 916.5 9341.17 916.5C9267.67 916.5 9234.67 882 9234.67 810V391.5C9234.67 318 9267.67 285 9341.17 285C9414.67 285 9443.17 256.5 9443.17 183C9443.17 109.5 9477.67 74.9999 9549.67 74.9999H9968.17C10041.7 74.9999 10074.7 109.5 10074.7 183C10074.7 256.5 10103.2 285 10176.7 285C10250.2 285 10284.7 318 10284.7 391.5V810C10284.7 882 10250.2 916.5 10176.7 916.5C10103.2 916.5 10074.7 945 10074.7 1018.5C10074.7 1092 10041.7 1125 9968.17 1125ZM9968.17 289.5H9549.67C9476.17 289.5 9447.67 316.5 9447.67 391.5V810C9447.67 883.5 9476.17 912 9549.67 912H9968.17C10043.2 912 10070.2 883.5 10070.2 810V391.5C10070.2 316.5 10043.2 289.5 9968.17 289.5ZM11169.3 1125H10750.8C10678.8 1125 10644.3 1092 10644.3 1018.5C10644.3 945 10615.8 916.5 10542.3 916.5C10468.8 916.5 10435.8 882 10435.8 810V391.5C10435.8 318 10468.8 285 10542.3 285C10615.8 285 10644.3 256.5 10644.3 183C10644.3 109.5 10678.8 74.9999 10750.8 74.9999H10960.8C11032.8 74.9999 11067.3 109.5 11067.3 183C11067.3 256.5 11094.3 285 11169.3 285C11242.8 285 11275.8 318 11275.8 391.5C11275.8 465 11242.8 498 11169.3 498C11095.8 498 11062.8 465 11062.8 391.5C11062.8 316.5 11034.3 289.5 10960.8 289.5H10750.8C10677.3 289.5 10648.8 316.5 10648.8 391.5V810C10648.8 883.5 10677.3 912 10750.8 912H11169.3C11244.3 912 11271.3 883.5 11271.3 810C11271.3 736.5 11305.8 702 11377.8 702C11451.3 702 11485.8 736.5 11485.8 810C11485.8 882 11451.3 916.5 11377.8 916.5C11304.3 916.5 11275.8 945 11275.8 1018.5C11275.8 1092 11242.8 1125 11169.3 1125ZM12342.7 1125H11924.2C11852.2 1125 11817.7 1092 11817.7 1018.5C11817.7 945 11789.2 916.5 11715.7 916.5C11642.2 916.5 11609.2 882 11609.2 810V391.5C11609.2 318 11642.2 285 11715.7 285C11789.2 285 11817.7 256.5 11817.7 183C11817.7 109.5 11852.2 74.9999 11924.2 74.9999H12342.7C12416.2 74.9999 12449.2 109.5 12449.2 183C12449.2 256.5 12477.7 285 12551.2 285C12624.7 285 12659.2 318 12659.2 391.5V810C12659.2 882 12624.7 916.5 12551.2 916.5C12477.7 916.5 12449.2 945 12449.2 1018.5C12449.2 1092 12416.2 1125 12342.7 1125ZM12342.7 289.5H11924.2C11850.7 289.5 11822.2 316.5 11822.2 391.5V810C11822.2 883.5 11850.7 912 11924.2 912H12342.7C12417.7 912 12444.7 883.5 12444.7 810V391.5C12444.7 316.5 12417.7 289.5 12342.7 289.5ZM13543.9 1125H12916.9C12843.4 1125 12810.4 1092 12810.4 1018.5V183C12810.4 109.5 12843.4 74.9999 12916.9 74.9999C12990.4 74.9999 13023.4 109.5 13023.4 183V810C13023.4 883.5 13051.9 912 13125.4 912H13335.4C13408.9 912 13437.4 883.5 13437.4 810C13437.4 736.5 13470.4 702 13543.9 702C13618.9 702 13645.9 675 13645.9 600C13645.9 528 13680.4 493.5 13752.4 493.5C13825.9 493.5 13860.4 528 13860.4 600C13860.4 673.5 13825.9 708 13752.4 708C13678.9 708 13650.4 735 13650.4 810V1018.5C13650.4 1092 13617.4 1125 13543.9 1125Z" fill="white"/>
</svg>
