<svg width="3532" height="1126" viewBox="0 0 3532 1126" fill="none" xmlns="http://www.w3.org/2000/svg">
<path fill-rule="evenodd" clip-rule="evenodd" d="M3215.5 1125.01H2588.5C2515 1125.01 2482 1092.01 2482 1018.51V180.5C2482 107 2515 74 2588.5 74H3215.5C3289 74 3322 107 3322 180.5C3322 254 3350.5 282.5 3424 282.5C3497.5 282.5 3532 317 3532 389L3532 810.011C3532 882.012 3497.5 916.512 3424 916.512C3350.5 916.512 3322 945.012 3322 1018.51C3322 1092.01 3289 1125.01 3215.5 1125.01ZM2695 401.51V810.011C2695 883.511 2723.5 912.012 2797 912.012H3215.5C3290.5 912.012 3317.5 883.511 3317.5 810.011V389C3317.5 315.5 3290.5 287 3215.5 287H2797C2723.5 287 2695 315.5 2695 389V401.51Z" fill="black"/>
<path d="M1125 1018.5C1125 1092 1090.5 1125 1017 1125C945 1125 910.5 1092 910.5 1018.5V600C910.5 526.5 883.5 498 808.5 498C733.5 498 706.5 526.5 706.5 600C706.5 673.5 672 708 600 708C526.5 708 492 673.5 492 600C492 526.5 465 498 390 498C316.5 498 288 526.5 288 600V1018.5C288 1092 255 1125 181.5 1125C108 1125 75 1092 75 1018.5V183C75 109.5 108 74.9999 181.5 74.9999C255 74.9999 288 109.5 288 183C288 256.5 316.5 285 390 285C463.5 285 498 318 498 391.5C498 466.5 525 493.5 600 493.5C673.5 493.5 702 466.5 702 391.5C702 318 735 285 808.5 285C883.5 285 910.5 256.5 910.5 183C910.5 109.5 945 74.9999 1017 74.9999C1090.5 74.9999 1125 109.5 1125 183V1018.5ZM1802.64 493.5C1874.64 493.5 1909.14 526.5 1909.14 600C1909.14 673.5 1874.64 706.5 1802.64 706.5C1729.14 706.5 1694.64 673.5 1694.64 600C1694.64 526.5 1729.14 493.5 1802.64 493.5ZM2219.64 283.5C2293.14 283.5 2327.64 318 2327.64 391.5V808.5C2327.64 882 2293.14 916.5 2219.64 916.5C2146.14 916.5 2117.64 943.5 2117.64 1018.5C2117.64 1090.5 2084.64 1125 2011.14 1125H1592.64C1520.64 1125 1486.14 1090.5 1486.14 1018.5C1486.14 943.5 1457.64 916.5 1384.14 916.5C1310.64 916.5 1277.64 882 1277.64 808.5V391.5C1277.64 318 1310.64 283.5 1384.14 283.5C1457.64 283.5 1486.14 256.5 1486.14 181.5C1486.14 108 1520.64 74.9999 1592.64 74.9999H2011.14C2084.64 74.9999 2117.64 108 2117.64 181.5C2117.64 256.5 2146.14 283.5 2219.64 283.5ZM2113.14 808.5V391.5C2113.14 316.5 2086.14 288 2011.14 288H1592.64C1519.14 288 1490.64 316.5 1490.64 391.5V808.5C1490.64 883.5 1519.14 910.5 1592.64 910.5H2011.14C2086.14 910.5 2113.14 883.5 2113.14 808.5Z" fill="black"/>
</svg>
